<mxfile host="Electron" modified="2024-12-04T08:36:34.083Z" agent="Mozilla/5.0 (Windows NT 10.0; Win64; x64) AppleWebKit/537.36 (KHTML, like Gecko) draw.io/22.0.3 Chrome/114.0.5735.289 Electron/25.8.4 Safari/537.36" etag="udyMOVmhZXCUMG-8wy8M" version="22.0.3" type="device">
  <diagram name="第 1 页" id="J6mjYwU12fVmkDpsJyx1">
    <mxGraphModel dx="1927" dy="710" grid="1" gridSize="10" guides="1" tooltips="1" connect="1" arrows="1" fold="1" page="1" pageScale="1" pageWidth="827" pageHeight="1169" math="0" shadow="0">
      <root>
        <mxCell id="0" />
        <mxCell id="1" parent="0" />
        <mxCell id="BgOZ6YaqCLX1gB_HSEzB-5" value="微前端" style="swimlane;childLayout=stackLayout;resizeParent=1;resizeParentMax=0;startSize=20;html=1;movable=1;resizable=1;rotatable=1;deletable=1;editable=1;locked=0;connectable=1;" parent="1" vertex="1">
          <mxGeometry x="-800" y="40" width="1450" height="910" as="geometry" />
        </mxCell>
        <mxCell id="BgOZ6YaqCLX1gB_HSEzB-6" value="qiankun" style="swimlane;startSize=20;html=1;movable=1;resizable=1;rotatable=1;deletable=1;editable=1;locked=0;connectable=1;align=center;" parent="BgOZ6YaqCLX1gB_HSEzB-5" vertex="1">
          <mxGeometry y="20" width="630" height="890" as="geometry">
            <mxRectangle y="20" width="40" height="890" as="alternateBounds" />
          </mxGeometry>
        </mxCell>
        <mxCell id="BgOZ6YaqCLX1gB_HSEzB-10" value="&lt;font style=&quot;font-size: 16px;&quot;&gt;js沙箱+样式隔离实现&lt;/font&gt;" style="text;html=1;align=center;verticalAlign=middle;resizable=0;points=[];autosize=1;" parent="BgOZ6YaqCLX1gB_HSEzB-6" vertex="1">
          <mxGeometry x="200" y="20" width="170" height="30" as="geometry" />
        </mxCell>
        <mxCell id="BgOZ6YaqCLX1gB_HSEzB-27" value="样式隔离" style="swimlane;childLayout=stackLayout;resizeParent=1;resizeParentMax=0;horizontal=1;startSize=20;horizontalStack=0;html=1;" parent="BgOZ6YaqCLX1gB_HSEzB-6" vertex="1">
          <mxGeometry y="50" width="610" height="310" as="geometry">
            <mxRectangle y="60" width="90" height="30" as="alternateBounds" />
          </mxGeometry>
        </mxCell>
        <mxCell id="BgOZ6YaqCLX1gB_HSEzB-28" value="默认" style="swimlane;startSize=20;horizontal=0;html=1;" parent="BgOZ6YaqCLX1gB_HSEzB-27" vertex="1">
          <mxGeometry y="20" width="610" height="80" as="geometry">
            <mxRectangle y="20" width="670" height="30" as="alternateBounds" />
          </mxGeometry>
        </mxCell>
        <mxCell id="BgOZ6YaqCLX1gB_HSEzB-31" value="&lt;font style=&quot;font-size: 14px;&quot;&gt;通过删除上一个子应用的link style标签实现样式隔离&lt;/font&gt;" style="text;html=1;align=center;verticalAlign=middle;resizable=0;points=[];autosize=1;strokeColor=none;fillColor=none;" parent="BgOZ6YaqCLX1gB_HSEzB-28" vertex="1">
          <mxGeometry x="20" y="10" width="340" height="30" as="geometry" />
        </mxCell>
        <mxCell id="BgOZ6YaqCLX1gB_HSEzB-32" value="&lt;font style=&quot;font-size: 14px;&quot;&gt;缺点： 只支持单例模式，不能多个子应用&lt;/font&gt;" style="text;html=1;align=center;verticalAlign=middle;resizable=0;points=[];autosize=1;strokeColor=none;fillColor=none;" parent="BgOZ6YaqCLX1gB_HSEzB-28" vertex="1">
          <mxGeometry x="20" y="40" width="280" height="30" as="geometry" />
        </mxCell>
        <mxCell id="BgOZ6YaqCLX1gB_HSEzB-29" value="严格模式" style="swimlane;startSize=20;horizontal=0;html=1;" parent="BgOZ6YaqCLX1gB_HSEzB-27" vertex="1">
          <mxGeometry y="100" width="610" height="120" as="geometry">
            <mxRectangle y="50" width="670" height="30" as="alternateBounds" />
          </mxGeometry>
        </mxCell>
        <mxCell id="BgOZ6YaqCLX1gB_HSEzB-33" value="&lt;font style=&quot;font-size: 14px;&quot;&gt;strictStyleIsolation：true开启，利用webcomponent shadowDom实现&lt;/font&gt;" style="text;html=1;align=center;verticalAlign=middle;resizable=0;points=[];autosize=1;strokeColor=none;fillColor=none;" parent="BgOZ6YaqCLX1gB_HSEzB-29" vertex="1">
          <mxGeometry x="20" y="10" width="450" height="30" as="geometry" />
        </mxCell>
        <mxCell id="BgOZ6YaqCLX1gB_HSEzB-34" value="&lt;font style=&quot;font-size: 14px;&quot;&gt;缺点：1. shadowDom改变应用的root节点为shadowRoot节点，导致&lt;br&gt;&lt;div style=&quot;&quot;&gt;&lt;span style=&quot;background-color: initial;&quot;&gt;&lt;span style=&quot;white-space: pre;&quot;&gt;&#x9;&lt;/span&gt;&amp;nbsp; &amp;nbsp; &amp;nbsp; &amp;nbsp;依赖document冒泡的事件无响应&lt;/span&gt;&lt;/div&gt;&lt;/font&gt;&lt;div style=&quot;font-size: 14px;&quot;&gt;&lt;span style=&quot;background-color: initial;&quot;&gt;&lt;font style=&quot;font-size: 14px;&quot;&gt;&lt;span style=&quot;white-space: pre;&quot;&gt;&#x9;&lt;/span&gt;&amp;nbsp; &amp;nbsp;2. 需要通过appendChild插入body节点的弹窗样式不生效&lt;/font&gt;&lt;/span&gt;&lt;/div&gt;" style="text;html=1;align=left;verticalAlign=middle;resizable=0;points=[];autosize=1;strokeColor=none;fillColor=none;" parent="BgOZ6YaqCLX1gB_HSEzB-29" vertex="1">
          <mxGeometry x="30" y="40" width="440" height="60" as="geometry" />
        </mxCell>
        <mxCell id="BgOZ6YaqCLX1gB_HSEzB-30" value="实验模式" style="swimlane;startSize=20;horizontal=0;html=1;" parent="BgOZ6YaqCLX1gB_HSEzB-27" vertex="1">
          <mxGeometry y="220" width="610" height="90" as="geometry">
            <mxRectangle y="80" width="670" height="30" as="alternateBounds" />
          </mxGeometry>
        </mxCell>
        <mxCell id="BgOZ6YaqCLX1gB_HSEzB-35" value="&lt;font style=&quot;font-size: 14px;&quot;&gt;experimentalStyleIsolation：true开启类似于 css scope&lt;/font&gt;" style="text;html=1;align=center;verticalAlign=middle;resizable=0;points=[];autosize=1;strokeColor=none;fillColor=none;" parent="BgOZ6YaqCLX1gB_HSEzB-30" vertex="1">
          <mxGeometry x="20" y="10" width="360" height="30" as="geometry" />
        </mxCell>
        <mxCell id="BgOZ6YaqCLX1gB_HSEzB-36" value="&lt;font style=&quot;font-size: 14px;&quot;&gt;缺点：需要替换css规则，性能较差&lt;/font&gt;" style="text;html=1;align=center;verticalAlign=middle;resizable=0;points=[];autosize=1;strokeColor=none;fillColor=none;" parent="BgOZ6YaqCLX1gB_HSEzB-30" vertex="1">
          <mxGeometry x="20" y="45" width="240" height="30" as="geometry" />
        </mxCell>
        <mxCell id="Gj8yI_mgtx7UsbcGv7XO-1" value="js沙箱" style="swimlane;childLayout=stackLayout;resizeParent=1;resizeParentMax=0;horizontal=1;startSize=20;horizontalStack=0;html=1;" vertex="1" parent="BgOZ6YaqCLX1gB_HSEzB-6">
          <mxGeometry y="370" width="610" height="520" as="geometry" />
        </mxCell>
        <mxCell id="Gj8yI_mgtx7UsbcGv7XO-2" value="快照沙箱" style="swimlane;startSize=20;horizontal=0;html=1;" vertex="1" parent="Gj8yI_mgtx7UsbcGv7XO-1">
          <mxGeometry y="20" width="610" height="150" as="geometry" />
        </mxCell>
        <mxCell id="Gj8yI_mgtx7UsbcGv7XO-13" value="" style="group" vertex="1" connectable="0" parent="Gj8yI_mgtx7UsbcGv7XO-2">
          <mxGeometry x="20" y="10" width="330" height="70" as="geometry" />
        </mxCell>
        <mxCell id="Gj8yI_mgtx7UsbcGv7XO-9" value="" style="group" vertex="1" connectable="0" parent="Gj8yI_mgtx7UsbcGv7XO-13">
          <mxGeometry x="80" width="250" height="70" as="geometry" />
        </mxCell>
        <mxCell id="Gj8yI_mgtx7UsbcGv7XO-5" value="&lt;font style=&quot;font-size: 14px;&quot;&gt;window&lt;/font&gt;" style="text;html=1;align=center;verticalAlign=middle;resizable=0;points=[];autosize=1;strokeColor=none;fillColor=none;" vertex="1" parent="Gj8yI_mgtx7UsbcGv7XO-9">
          <mxGeometry width="70" height="30" as="geometry" />
        </mxCell>
        <mxCell id="Gj8yI_mgtx7UsbcGv7XO-38" style="edgeStyle=orthogonalEdgeStyle;rounded=0;orthogonalLoop=1;jettySize=auto;html=1;" edge="1" parent="Gj8yI_mgtx7UsbcGv7XO-9" source="Gj8yI_mgtx7UsbcGv7XO-6">
          <mxGeometry relative="1" as="geometry">
            <mxPoint x="270" y="70" as="targetPoint" />
          </mxGeometry>
        </mxCell>
        <mxCell id="Gj8yI_mgtx7UsbcGv7XO-39" value="diff差异后" style="edgeLabel;html=1;align=center;verticalAlign=middle;resizable=0;points=[];" vertex="1" connectable="0" parent="Gj8yI_mgtx7UsbcGv7XO-38">
          <mxGeometry x="0.1159" y="4" relative="1" as="geometry">
            <mxPoint as="offset" />
          </mxGeometry>
        </mxCell>
        <mxCell id="Gj8yI_mgtx7UsbcGv7XO-6" value="&lt;font style=&quot;font-size: 14px;&quot;&gt;windowSnapshot&lt;/font&gt;" style="text;html=1;align=center;verticalAlign=middle;resizable=0;points=[];autosize=1;strokeColor=none;fillColor=none;" vertex="1" parent="Gj8yI_mgtx7UsbcGv7XO-9">
          <mxGeometry x="120" width="130" height="30" as="geometry" />
        </mxCell>
        <mxCell id="Gj8yI_mgtx7UsbcGv7XO-7" value="" style="edgeStyle=orthogonalEdgeStyle;rounded=0;orthogonalLoop=1;jettySize=auto;html=1;" edge="1" parent="Gj8yI_mgtx7UsbcGv7XO-9" source="Gj8yI_mgtx7UsbcGv7XO-5" target="Gj8yI_mgtx7UsbcGv7XO-6">
          <mxGeometry relative="1" as="geometry" />
        </mxCell>
        <mxCell id="Gj8yI_mgtx7UsbcGv7XO-8" value="copy" style="edgeLabel;html=1;align=center;verticalAlign=middle;resizable=0;points=[];" vertex="1" connectable="0" parent="Gj8yI_mgtx7UsbcGv7XO-7">
          <mxGeometry x="-0.1833" y="5" relative="1" as="geometry">
            <mxPoint as="offset" />
          </mxGeometry>
        </mxCell>
        <mxCell id="Gj8yI_mgtx7UsbcGv7XO-12" value="&lt;font style=&quot;font-size: 14px;&quot;&gt;&lt;b&gt;激活时：&lt;/b&gt;&lt;/font&gt;" style="text;html=1;align=center;verticalAlign=middle;resizable=0;points=[];autosize=1;strokeColor=none;fillColor=none;" vertex="1" parent="Gj8yI_mgtx7UsbcGv7XO-9">
          <mxGeometry x="-60" width="80" height="30" as="geometry" />
        </mxCell>
        <mxCell id="Gj8yI_mgtx7UsbcGv7XO-26" value="" style="group" vertex="1" connectable="0" parent="Gj8yI_mgtx7UsbcGv7XO-9">
          <mxGeometry x="15" y="60" width="235" height="30" as="geometry" />
        </mxCell>
        <mxCell id="Gj8yI_mgtx7UsbcGv7XO-16" value="&lt;font style=&quot;font-size: 14px;&quot;&gt;window&lt;/font&gt;" style="text;html=1;align=center;verticalAlign=middle;resizable=0;points=[];autosize=1;strokeColor=none;fillColor=none;" vertex="1" parent="Gj8yI_mgtx7UsbcGv7XO-26">
          <mxGeometry x="-5" width="70" height="30" as="geometry" />
        </mxCell>
        <mxCell id="Gj8yI_mgtx7UsbcGv7XO-22" value="&lt;font style=&quot;font-size: 14px;&quot;&gt;windowSnapshot&lt;/font&gt;" style="text;html=1;align=center;verticalAlign=middle;resizable=0;points=[];autosize=1;strokeColor=none;fillColor=none;" vertex="1" parent="Gj8yI_mgtx7UsbcGv7XO-26">
          <mxGeometry x="105" width="130" height="30" as="geometry" />
        </mxCell>
        <mxCell id="Gj8yI_mgtx7UsbcGv7XO-23" value="" style="edgeStyle=orthogonalEdgeStyle;rounded=0;orthogonalLoop=1;jettySize=auto;html=1;" edge="1" parent="Gj8yI_mgtx7UsbcGv7XO-26" source="Gj8yI_mgtx7UsbcGv7XO-16" target="Gj8yI_mgtx7UsbcGv7XO-22">
          <mxGeometry relative="1" as="geometry" />
        </mxCell>
        <mxCell id="Gj8yI_mgtx7UsbcGv7XO-25" value="copy" style="edgeLabel;html=1;align=center;verticalAlign=middle;resizable=0;points=[];" vertex="1" connectable="0" parent="Gj8yI_mgtx7UsbcGv7XO-23">
          <mxGeometry x="-0.2833" y="4" relative="1" as="geometry">
            <mxPoint as="offset" />
          </mxGeometry>
        </mxCell>
        <mxCell id="Gj8yI_mgtx7UsbcGv7XO-27" value="" style="edgeStyle=orthogonalEdgeStyle;rounded=0;orthogonalLoop=1;jettySize=auto;html=1;" edge="1" parent="Gj8yI_mgtx7UsbcGv7XO-9" source="Gj8yI_mgtx7UsbcGv7XO-22" target="Gj8yI_mgtx7UsbcGv7XO-6">
          <mxGeometry relative="1" as="geometry" />
        </mxCell>
        <mxCell id="Gj8yI_mgtx7UsbcGv7XO-28" value="diff" style="edgeLabel;html=1;align=center;verticalAlign=middle;resizable=0;points=[];" vertex="1" connectable="0" parent="Gj8yI_mgtx7UsbcGv7XO-27">
          <mxGeometry x="0.24" y="-2" relative="1" as="geometry">
            <mxPoint as="offset" />
          </mxGeometry>
        </mxCell>
        <mxCell id="Gj8yI_mgtx7UsbcGv7XO-14" value="&lt;font style=&quot;font-size: 14px;&quot;&gt;&lt;b&gt;离开时：&lt;/b&gt;&lt;/font&gt;" style="text;html=1;align=center;verticalAlign=middle;resizable=0;points=[];autosize=1;strokeColor=none;fillColor=none;" vertex="1" parent="Gj8yI_mgtx7UsbcGv7XO-13">
          <mxGeometry x="17.5" y="60" width="80" height="30" as="geometry" />
        </mxCell>
        <mxCell id="Gj8yI_mgtx7UsbcGv7XO-29" value="&lt;code style=&quot;font-family: Menlo, Monaco, Consolas, &amp;quot;Courier New&amp;quot;, monospace; font-size: 0.87em; word-break: break-word; border-radius: 2px; overflow-x: auto; background-color: rgb(255, 245, 245); color: rgb(255, 80, 44); padding: 0.065em 0.4em; text-align: left;&quot;&gt;modifyPropsMap&lt;/code&gt;&amp;nbsp;" style="text;html=1;align=center;verticalAlign=middle;resizable=0;points=[];autosize=1;strokeColor=none;fillColor=none;" vertex="1" parent="Gj8yI_mgtx7UsbcGv7XO-2">
          <mxGeometry x="385" y="70" width="120" height="30" as="geometry" />
        </mxCell>
        <mxCell id="Gj8yI_mgtx7UsbcGv7XO-30" value="" style="edgeStyle=orthogonalEdgeStyle;rounded=0;orthogonalLoop=1;jettySize=auto;html=1;" edge="1" parent="Gj8yI_mgtx7UsbcGv7XO-2" source="Gj8yI_mgtx7UsbcGv7XO-22" target="Gj8yI_mgtx7UsbcGv7XO-29">
          <mxGeometry relative="1" as="geometry" />
        </mxCell>
        <mxCell id="Gj8yI_mgtx7UsbcGv7XO-35" value="&lt;font color=&quot;#ff0000&quot; style=&quot;font-size: 14px;&quot;&gt;windowSnapshot恢复之前的环境，依赖modifyPropsMap恢复上一次子应用变更&lt;/font&gt;" style="text;html=1;align=center;verticalAlign=middle;resizable=0;points=[];autosize=1;strokeColor=none;fillColor=none;" vertex="1" parent="Gj8yI_mgtx7UsbcGv7XO-2">
          <mxGeometry x="30" y="110" width="510" height="30" as="geometry" />
        </mxCell>
        <mxCell id="Gj8yI_mgtx7UsbcGv7XO-3" value="单例代理沙箱" style="swimlane;startSize=20;horizontal=0;html=1;" vertex="1" parent="Gj8yI_mgtx7UsbcGv7XO-1">
          <mxGeometry y="170" width="610" height="90" as="geometry" />
        </mxCell>
        <mxCell id="Gj8yI_mgtx7UsbcGv7XO-41" value="&lt;font style=&quot;font-size: 14px;&quot;&gt;缺点：与快照沙箱缺点一致，只能单例，不能多个子应用&lt;/font&gt;" style="text;html=1;align=center;verticalAlign=middle;resizable=0;points=[];autosize=1;strokeColor=none;fillColor=none;" vertex="1" parent="Gj8yI_mgtx7UsbcGv7XO-3">
          <mxGeometry x="20" y="50" width="370" height="30" as="geometry" />
        </mxCell>
        <mxCell id="Gj8yI_mgtx7UsbcGv7XO-40" value="&lt;font style=&quot;font-size: 14px;&quot;&gt;与快照沙箱原理一致，通过proxy代理window属性的set,不用遍历diff，性能较好&lt;/font&gt;" style="text;html=1;align=center;verticalAlign=middle;resizable=0;points=[];autosize=1;strokeColor=none;fillColor=none;" vertex="1" parent="Gj8yI_mgtx7UsbcGv7XO-3">
          <mxGeometry x="20" y="10" width="510" height="30" as="geometry" />
        </mxCell>
        <mxCell id="Gj8yI_mgtx7UsbcGv7XO-4" value="多例代理沙箱" style="swimlane;startSize=20;horizontal=0;html=1;" vertex="1" parent="Gj8yI_mgtx7UsbcGv7XO-1">
          <mxGeometry y="260" width="610" height="260" as="geometry" />
        </mxCell>
        <mxCell id="Gj8yI_mgtx7UsbcGv7XO-49" value="&lt;font style=&quot;font-size: 14px;&quot;&gt;缺点：vite支持差&amp;nbsp; eval不支持ESMode语法&lt;/font&gt;" style="text;html=1;align=center;verticalAlign=middle;resizable=0;points=[];autosize=1;strokeColor=none;fillColor=none;" vertex="1" parent="Gj8yI_mgtx7UsbcGv7XO-4">
          <mxGeometry x="30" y="220" width="290" height="30" as="geometry" />
        </mxCell>
        <mxCell id="Gj8yI_mgtx7UsbcGv7XO-43" value="&lt;font style=&quot;font-size: 14px;&quot;&gt;fakeWindow&lt;/font&gt;" style="text;html=1;align=center;verticalAlign=middle;resizable=0;points=[];autosize=1;strokeColor=none;fillColor=none;" vertex="1" parent="Gj8yI_mgtx7UsbcGv7XO-4">
          <mxGeometry x="147.5" y="10" width="100" height="30" as="geometry" />
        </mxCell>
        <mxCell id="Gj8yI_mgtx7UsbcGv7XO-44" value="" style="edgeStyle=orthogonalEdgeStyle;rounded=0;orthogonalLoop=1;jettySize=auto;html=1;" edge="1" parent="Gj8yI_mgtx7UsbcGv7XO-4" source="Gj8yI_mgtx7UsbcGv7XO-42" target="Gj8yI_mgtx7UsbcGv7XO-43">
          <mxGeometry relative="1" as="geometry" />
        </mxCell>
        <mxCell id="Gj8yI_mgtx7UsbcGv7XO-45" value="多个" style="edgeLabel;html=1;align=center;verticalAlign=middle;resizable=0;points=[];" vertex="1" connectable="0" parent="Gj8yI_mgtx7UsbcGv7XO-44">
          <mxGeometry x="-0.4564" y="1" relative="1" as="geometry">
            <mxPoint as="offset" />
          </mxGeometry>
        </mxCell>
        <mxCell id="Gj8yI_mgtx7UsbcGv7XO-42" value="&lt;font style=&quot;font-size: 14px;&quot;&gt;window&lt;/font&gt;" style="text;html=1;align=center;verticalAlign=middle;resizable=0;points=[];autosize=1;strokeColor=none;fillColor=none;" vertex="1" parent="Gj8yI_mgtx7UsbcGv7XO-4">
          <mxGeometry x="32.5" y="10" width="70" height="30" as="geometry" />
        </mxCell>
        <mxCell id="Gj8yI_mgtx7UsbcGv7XO-47" value="&lt;div style=&quot;font-size: 14px;&quot;&gt;&lt;span style=&quot;background-color: initial;&quot;&gt;const jsCode = `&lt;/span&gt;&lt;br&gt;&lt;/div&gt;&lt;div style=&quot;font-size: 14px;&quot;&gt;&lt;div&gt;(function(window, self, globalThis){&lt;/div&gt;&lt;/div&gt;&lt;blockquote style=&quot;margin: 0 0 0 40px; border: none; padding: 0px;&quot;&gt;&lt;div style=&quot;font-size: 14px;&quot;&gt;&lt;div style=&quot;border-color: var(--border-color);&quot;&gt;&lt;font style=&quot;border-color: var(--border-color);&quot;&gt;with(this) {&lt;/font&gt;&lt;/div&gt;&lt;/div&gt;&lt;div style=&quot;font-size: 14px;&quot;&gt;&lt;div style=&quot;border-color: var(--border-color);&quot;&gt;&lt;font style=&quot;border-color: var(--border-color);&quot;&gt;&lt;span style=&quot;border-color: var(--border-color);&quot;&gt;&lt;span style=&quot;border-color: var(--border-color);&quot;&gt;&amp;nbsp;&amp;nbsp;&amp;nbsp;&amp;nbsp;&lt;/span&gt;&lt;/span&gt;const undefined = windowProxy.undefined; const Array = windowProxy.Array;&amp;nbsp;&lt;/font&gt;&lt;/div&gt;&lt;/div&gt;&lt;div style=&quot;font-size: 14px;&quot;&gt;&lt;div style=&quot;border-color: var(--border-color);&quot;&gt;&lt;font style=&quot;border-color: var(--border-color);&quot;&gt;&lt;span style=&quot;border-color: var(--border-color);&quot;&gt;&lt;span style=&quot;border-color: var(--border-color);&quot;&gt;&amp;nbsp;&amp;nbsp;&amp;nbsp;&amp;nbsp;&lt;/span&gt;&lt;/span&gt;const Promise = windowProxy.Promise;&lt;/font&gt;&lt;/div&gt;&lt;/div&gt;&lt;div style=&quot;font-size: 14px;&quot;&gt;&lt;div style=&quot;border-color: var(--border-color);&quot;&gt;&lt;font style=&quot;border-color: var(--border-color);&quot;&gt;&amp;nbsp;&amp;nbsp;&lt;span style=&quot;border-color: var(--border-color);&quot;&gt;&lt;span style=&quot;border-color: var(--border-color);&quot;&gt;&amp;nbsp;&amp;nbsp;&amp;nbsp;&amp;nbsp;&lt;/span&gt;&lt;/span&gt;//通过 with 确保所有的全局变量的操作实际都是在操作 qiankun 提供的代理对象&lt;/font&gt;&lt;/div&gt;&lt;/div&gt;&lt;div style=&quot;font-size: 14px;&quot;&gt;&lt;div style=&quot;border-color: var(--border-color);&quot;&gt;&lt;font style=&quot;border-color: var(--border-color);&quot;&gt;&amp;nbsp;&amp;nbsp;&lt;span style=&quot;border-color: var(--border-color);&quot;&gt;&lt;span style=&quot;border-color: var(--border-color);&quot;&gt;&amp;nbsp;&amp;nbsp;&amp;nbsp;&amp;nbsp;&lt;/span&gt;&lt;/span&gt;${appCode}&lt;/font&gt;&lt;/div&gt;&lt;/div&gt;&lt;div style=&quot;font-size: 14px;&quot;&gt;&lt;div style=&quot;border-color: var(--border-color);&quot;&gt;&lt;font style=&quot;border-color: var(--border-color);&quot;&gt;}&lt;/font&gt;&lt;/div&gt;&lt;/div&gt;&lt;/blockquote&gt;&lt;div style=&quot;font-size: 14px;&quot;&gt;&lt;div&gt;}).bind(window.proxy)(window.proxy, window.proxy, window.proxy);&lt;/div&gt;&lt;div&gt;`&amp;nbsp; &amp;nbsp; &amp;nbsp;&amp;nbsp;&lt;span style=&quot;background-color: initial;&quot;&gt;eval(jsCode)&lt;/span&gt;&lt;/div&gt;&lt;/div&gt;" style="text;html=1;align=left;verticalAlign=middle;resizable=0;points=[];autosize=1;strokeColor=none;fillColor=none;" vertex="1" parent="Gj8yI_mgtx7UsbcGv7XO-4">
          <mxGeometry x="30" y="40" width="580" height="180" as="geometry" />
        </mxCell>
        <mxCell id="BgOZ6YaqCLX1gB_HSEzB-7" value="wujie" style="swimlane;startSize=20;html=1;movable=1;resizable=1;rotatable=1;deletable=1;editable=1;locked=0;connectable=1;" parent="BgOZ6YaqCLX1gB_HSEzB-5" vertex="1">
          <mxGeometry x="630" y="20" width="410" height="890" as="geometry" />
        </mxCell>
        <mxCell id="Gj8yI_mgtx7UsbcGv7XO-50" value="&lt;span style=&quot;font-size: 16px;&quot;&gt;iframe+webComponent实现&lt;/span&gt;" style="text;html=1;align=center;verticalAlign=middle;resizable=0;points=[];autosize=1;strokeColor=none;fillColor=none;" vertex="1" parent="BgOZ6YaqCLX1gB_HSEzB-7">
          <mxGeometry x="95" y="20" width="220" height="30" as="geometry" />
        </mxCell>
        <mxCell id="Gj8yI_mgtx7UsbcGv7XO-56" value="js沙箱" style="swimlane;childLayout=stackLayout;resizeParent=1;resizeParentMax=0;horizontal=1;startSize=20;horizontalStack=0;html=1;" vertex="1" parent="BgOZ6YaqCLX1gB_HSEzB-7">
          <mxGeometry y="140" width="400" height="60" as="geometry" />
        </mxCell>
        <mxCell id="Gj8yI_mgtx7UsbcGv7XO-57" value="iframe" style="swimlane;startSize=20;horizontal=0;html=1;" vertex="1" parent="Gj8yI_mgtx7UsbcGv7XO-56">
          <mxGeometry y="20" width="400" height="40" as="geometry" />
        </mxCell>
        <mxCell id="Gj8yI_mgtx7UsbcGv7XO-58" value="&lt;font style=&quot;font-size: 14px;&quot;&gt;iframe隔离&lt;/font&gt;" style="text;html=1;align=center;verticalAlign=middle;resizable=0;points=[];autosize=1;strokeColor=none;fillColor=none;" vertex="1" parent="Gj8yI_mgtx7UsbcGv7XO-57">
          <mxGeometry x="20" y="5" width="90" height="30" as="geometry" />
        </mxCell>
        <mxCell id="Gj8yI_mgtx7UsbcGv7XO-59" value="Dom渲染" style="swimlane;childLayout=stackLayout;resizeParent=1;resizeParentMax=0;horizontal=1;startSize=20;horizontalStack=0;html=1;" vertex="1" parent="BgOZ6YaqCLX1gB_HSEzB-7">
          <mxGeometry y="210" width="400" height="260" as="geometry">
            <mxRectangle y="240" width="90" height="30" as="alternateBounds" />
          </mxGeometry>
        </mxCell>
        <mxCell id="Gj8yI_mgtx7UsbcGv7XO-60" value="webComponent" style="swimlane;startSize=20;horizontal=0;html=1;" vertex="1" parent="Gj8yI_mgtx7UsbcGv7XO-59">
          <mxGeometry y="20" width="400" height="240" as="geometry">
            <mxRectangle y="20" width="480" height="30" as="alternateBounds" />
          </mxGeometry>
        </mxCell>
        <mxCell id="Gj8yI_mgtx7UsbcGv7XO-61" value="&lt;span style=&quot;font-size: 14px;&quot;&gt;通过webComponent的shadowDom突破iframe边界&amp;nbsp;&lt;/span&gt;" style="text;html=1;align=center;verticalAlign=middle;resizable=0;points=[];autosize=1;strokeColor=none;fillColor=none;" vertex="1" parent="Gj8yI_mgtx7UsbcGv7XO-60">
          <mxGeometry x="20" width="340" height="30" as="geometry" />
        </mxCell>
        <mxCell id="Gj8yI_mgtx7UsbcGv7XO-66" value="" style="edgeStyle=orthogonalEdgeStyle;rounded=0;orthogonalLoop=1;jettySize=auto;html=1;" edge="1" parent="Gj8yI_mgtx7UsbcGv7XO-60" source="Gj8yI_mgtx7UsbcGv7XO-62" target="Gj8yI_mgtx7UsbcGv7XO-64">
          <mxGeometry relative="1" as="geometry">
            <Array as="points">
              <mxPoint x="140" y="125" />
              <mxPoint x="140" y="55" />
            </Array>
          </mxGeometry>
        </mxCell>
        <mxCell id="Gj8yI_mgtx7UsbcGv7XO-74" value="js" style="edgeLabel;html=1;align=center;verticalAlign=middle;resizable=0;points=[];" vertex="1" connectable="0" parent="Gj8yI_mgtx7UsbcGv7XO-66">
          <mxGeometry x="0.1018" y="1" relative="1" as="geometry">
            <mxPoint as="offset" />
          </mxGeometry>
        </mxCell>
        <mxCell id="Gj8yI_mgtx7UsbcGv7XO-68" value="" style="edgeStyle=orthogonalEdgeStyle;rounded=0;orthogonalLoop=1;jettySize=auto;html=1;" edge="1" parent="Gj8yI_mgtx7UsbcGv7XO-60" source="Gj8yI_mgtx7UsbcGv7XO-62" target="Gj8yI_mgtx7UsbcGv7XO-67">
          <mxGeometry relative="1" as="geometry">
            <Array as="points">
              <mxPoint x="140" y="125" />
              <mxPoint x="140" y="185" />
            </Array>
          </mxGeometry>
        </mxCell>
        <mxCell id="Gj8yI_mgtx7UsbcGv7XO-73" value="dom" style="edgeLabel;html=1;align=center;verticalAlign=middle;resizable=0;points=[];" vertex="1" connectable="0" parent="Gj8yI_mgtx7UsbcGv7XO-68">
          <mxGeometry x="-0.0431" relative="1" as="geometry">
            <mxPoint as="offset" />
          </mxGeometry>
        </mxCell>
        <mxCell id="Gj8yI_mgtx7UsbcGv7XO-62" value="&lt;font style=&quot;font-size: 14px;&quot;&gt;js+dom&lt;/font&gt;" style="text;html=1;align=center;verticalAlign=middle;resizable=0;points=[];autosize=1;strokeColor=none;fillColor=none;" vertex="1" parent="Gj8yI_mgtx7UsbcGv7XO-60">
          <mxGeometry x="20" y="110" width="70" height="30" as="geometry" />
        </mxCell>
        <mxCell id="Gj8yI_mgtx7UsbcGv7XO-64" value="&lt;span style=&quot;font-size: 14px;&quot;&gt;iframe&lt;/span&gt;" style="text;html=1;align=center;verticalAlign=middle;resizable=0;points=[];autosize=1;strokeColor=none;fillColor=none;" vertex="1" parent="Gj8yI_mgtx7UsbcGv7XO-60">
          <mxGeometry x="210" y="40" width="60" height="30" as="geometry" />
        </mxCell>
        <mxCell id="Gj8yI_mgtx7UsbcGv7XO-67" value="&lt;span style=&quot;font-size: 14px;&quot;&gt;webComponent&lt;/span&gt;" style="text;html=1;align=center;verticalAlign=middle;resizable=0;points=[];autosize=1;strokeColor=none;fillColor=none;" vertex="1" parent="Gj8yI_mgtx7UsbcGv7XO-60">
          <mxGeometry x="200" y="170" width="120" height="30" as="geometry" />
        </mxCell>
        <mxCell id="Gj8yI_mgtx7UsbcGv7XO-76" style="edgeStyle=orthogonalEdgeStyle;rounded=0;orthogonalLoop=1;jettySize=auto;html=1;entryX=0.336;entryY=0.189;entryDx=0;entryDy=0;entryPerimeter=0;" edge="1" parent="Gj8yI_mgtx7UsbcGv7XO-60" source="Gj8yI_mgtx7UsbcGv7XO-64" target="Gj8yI_mgtx7UsbcGv7XO-67">
          <mxGeometry relative="1" as="geometry" />
        </mxCell>
        <mxCell id="Gj8yI_mgtx7UsbcGv7XO-77" value="重写document.querySelector等Dom方法" style="edgeLabel;html=1;align=center;verticalAlign=middle;resizable=0;points=[];" vertex="1" connectable="0" parent="Gj8yI_mgtx7UsbcGv7XO-76">
          <mxGeometry x="-0.0224" y="-1" relative="1" as="geometry">
            <mxPoint x="11" y="-14" as="offset" />
          </mxGeometry>
        </mxCell>
        <mxCell id="Gj8yI_mgtx7UsbcGv7XO-90" value="&lt;font style=&quot;font-size: 14px;&quot;&gt;缺点：富文本编辑器无法完全兼容&lt;/font&gt;" style="text;html=1;align=center;verticalAlign=middle;resizable=0;points=[];autosize=1;strokeColor=none;fillColor=none;" vertex="1" parent="Gj8yI_mgtx7UsbcGv7XO-60">
          <mxGeometry x="20" y="200" width="230" height="30" as="geometry" />
        </mxCell>
        <mxCell id="Gj8yI_mgtx7UsbcGv7XO-51" value="样式隔离" style="swimlane;childLayout=stackLayout;resizeParent=1;resizeParentMax=0;horizontal=1;startSize=20;horizontalStack=0;html=1;" vertex="1" parent="BgOZ6YaqCLX1gB_HSEzB-7">
          <mxGeometry y="50" width="400" height="80" as="geometry" />
        </mxCell>
        <mxCell id="Gj8yI_mgtx7UsbcGv7XO-52" value="iframe" style="swimlane;startSize=20;horizontal=0;html=1;" vertex="1" parent="Gj8yI_mgtx7UsbcGv7XO-51">
          <mxGeometry y="20" width="400" height="60" as="geometry" />
        </mxCell>
        <mxCell id="Gj8yI_mgtx7UsbcGv7XO-55" value="&lt;font style=&quot;font-size: 14px;&quot;&gt;iframe本身自带样式隔离&lt;/font&gt;" style="text;html=1;align=center;verticalAlign=middle;resizable=0;points=[];autosize=1;strokeColor=none;fillColor=none;" vertex="1" parent="Gj8yI_mgtx7UsbcGv7XO-52">
          <mxGeometry x="20" y="15" width="170" height="30" as="geometry" />
        </mxCell>
        <mxCell id="Gj8yI_mgtx7UsbcGv7XO-83" value="刷新子应用路由状态丢失解决" style="swimlane;startSize=20;html=1;" vertex="1" parent="BgOZ6YaqCLX1gB_HSEzB-7">
          <mxGeometry y="480" width="400" height="180" as="geometry">
            <mxRectangle y="470" width="200" height="30" as="alternateBounds" />
          </mxGeometry>
        </mxCell>
        <mxCell id="Gj8yI_mgtx7UsbcGv7XO-86" value="&lt;div style=&quot;font-size: 14px;&quot;&gt;&lt;font style=&quot;font-size: 14px;&quot;&gt;重写&lt;code style=&quot;&quot;&gt;iframe&lt;/code&gt;实例的&lt;code style=&quot;&quot;&gt;history.pushState&lt;/code&gt;和&lt;/font&gt;&lt;font style=&quot;background-color: initial;&quot;&gt;&lt;code&gt;history.replaceState&lt;/code&gt;，&lt;/font&gt;&lt;/div&gt;&lt;div style=&quot;font-size: 14px;&quot;&gt;&lt;span style=&quot;background-color: initial;&quot;&gt;将子应用的 &lt;/span&gt;&lt;code style=&quot;background-color: initial;&quot;&gt;path&lt;/code&gt;&lt;span style=&quot;background-color: initial;&quot;&gt; 记录到主应用地址栏&lt;/span&gt;&lt;span style=&quot;background-color: initial;&quot;&gt;的 &lt;/span&gt;&lt;code style=&quot;background-color: initial;&quot;&gt;query&lt;/code&gt;&lt;span style=&quot;background-color: initial;&quot;&gt; 参数上，&lt;/span&gt;&lt;span style=&quot;background-color: initial;&quot;&gt;当刷新&lt;/span&gt;&lt;/div&gt;&lt;div style=&quot;font-size: 14px;&quot;&gt;&lt;span style=&quot;background-color: initial;&quot;&gt;浏览器初&lt;/span&gt;&lt;span style=&quot;background-color: initial;&quot;&gt;始化 &lt;/span&gt;&lt;code style=&quot;background-color: initial;&quot;&gt;iframe&lt;/code&gt;&lt;span style=&quot;background-color: initial;&quot;&gt; 时，从地址栏读&lt;/span&gt;&lt;span style=&quot;background-color: initial;&quot;&gt;到子应用的 &lt;/span&gt;&lt;code style=&quot;background-color: initial;&quot;&gt;path&lt;/code&gt;&lt;span style=&quot;background-color: initial;&quot;&gt; 并使用&amp;nbsp;&lt;/span&gt;&lt;/div&gt;&lt;div style=&quot;font-size: 14px;&quot;&gt;&lt;code style=&quot;background-color: initial;&quot;&gt;iframe&lt;/code&gt;&lt;span style=&quot;background-color: initial;&quot;&gt; 的 &lt;/span&gt;&lt;code style=&quot;background-color: initial;&quot;&gt;history.&lt;/code&gt;&lt;code style=&quot;background-color: initial;&quot;&gt;replaceState&lt;/code&gt;&lt;span style=&quot;background-color: initial;&quot;&gt; 进行&lt;/span&gt;&lt;span style=&quot;background-color: initial;&quot;&gt;同步&lt;/span&gt;&lt;/div&gt;" style="text;html=1;align=left;verticalAlign=middle;resizable=0;points=[];autosize=1;strokeColor=none;fillColor=none;" vertex="1" parent="Gj8yI_mgtx7UsbcGv7XO-83">
          <mxGeometry y="30" width="420" height="80" as="geometry" />
        </mxCell>
        <mxCell id="Gj8yI_mgtx7UsbcGv7XO-88" value="&lt;font style=&quot;font-size: 14px;&quot;&gt;缺点：子应用src需要指向同一个同域地址导致子应用加载完成&lt;br&gt;后还会请求一次主应用host&lt;/font&gt;" style="text;html=1;align=left;verticalAlign=middle;resizable=0;points=[];autosize=1;strokeColor=none;fillColor=none;" vertex="1" parent="Gj8yI_mgtx7UsbcGv7XO-83">
          <mxGeometry y="110" width="410" height="50" as="geometry" />
        </mxCell>
        <mxCell id="BgOZ6YaqCLX1gB_HSEzB-8" value="micro-app" style="swimlane;startSize=20;html=1;movable=1;resizable=1;rotatable=1;deletable=1;editable=1;locked=0;connectable=1;" parent="BgOZ6YaqCLX1gB_HSEzB-5" vertex="1">
          <mxGeometry x="1040" y="20" width="410" height="890" as="geometry" />
        </mxCell>
        <mxCell id="Gj8yI_mgtx7UsbcGv7XO-95" value="&lt;font style=&quot;font-size: 16px;&quot;&gt;iframe+webComponent+js沙箱+样式隔离&lt;/font&gt;" style="text;html=1;align=center;verticalAlign=middle;resizable=0;points=[];autosize=1;strokeColor=none;fillColor=none;" vertex="1" parent="BgOZ6YaqCLX1gB_HSEzB-8">
          <mxGeometry x="45" y="20" width="320" height="30" as="geometry" />
        </mxCell>
        <mxCell id="Gj8yI_mgtx7UsbcGv7XO-92" value="样式隔离" style="swimlane;childLayout=stackLayout;resizeParent=1;resizeParentMax=0;horizontal=1;startSize=20;horizontalStack=0;html=1;" vertex="1" parent="BgOZ6YaqCLX1gB_HSEzB-8">
          <mxGeometry y="50" width="400" height="80" as="geometry" />
        </mxCell>
        <mxCell id="Gj8yI_mgtx7UsbcGv7XO-93" value="qiankun" style="swimlane;startSize=20;horizontal=0;html=1;" vertex="1" parent="Gj8yI_mgtx7UsbcGv7XO-92">
          <mxGeometry y="20" width="400" height="60" as="geometry" />
        </mxCell>
        <mxCell id="Gj8yI_mgtx7UsbcGv7XO-94" value="&lt;span style=&quot;font-size: 14px;&quot;&gt;与qiankun严格模式样式隔离方案一致&lt;/span&gt;" style="text;html=1;align=center;verticalAlign=middle;resizable=0;points=[];autosize=1;strokeColor=none;fillColor=none;" vertex="1" parent="Gj8yI_mgtx7UsbcGv7XO-93">
          <mxGeometry x="20" y="15" width="250" height="30" as="geometry" />
        </mxCell>
        <mxCell id="Gj8yI_mgtx7UsbcGv7XO-96" value="js沙箱" style="swimlane;childLayout=stackLayout;resizeParent=1;resizeParentMax=0;horizontal=1;startSize=20;horizontalStack=0;html=1;" vertex="1" parent="BgOZ6YaqCLX1gB_HSEzB-8">
          <mxGeometry y="140" width="400" height="160" as="geometry" />
        </mxCell>
        <mxCell id="Gj8yI_mgtx7UsbcGv7XO-99" value="with沙箱" style="swimlane;startSize=20;horizontal=0;html=1;" vertex="1" parent="Gj8yI_mgtx7UsbcGv7XO-96">
          <mxGeometry y="20" width="400" height="70" as="geometry">
            <mxRectangle y="20" width="400" height="30" as="alternateBounds" />
          </mxGeometry>
        </mxCell>
        <mxCell id="Gj8yI_mgtx7UsbcGv7XO-100" value="&lt;span style=&quot;font-size: 14px;&quot;&gt;与qiankun隔离方案一致&lt;/span&gt;" style="text;html=1;align=center;verticalAlign=middle;resizable=0;points=[];autosize=1;strokeColor=none;fillColor=none;" vertex="1" parent="Gj8yI_mgtx7UsbcGv7XO-99">
          <mxGeometry x="20" y="20" width="170" height="30" as="geometry" />
        </mxCell>
        <mxCell id="Gj8yI_mgtx7UsbcGv7XO-97" value="iframe沙箱" style="swimlane;startSize=20;horizontal=0;html=1;" vertex="1" parent="Gj8yI_mgtx7UsbcGv7XO-96">
          <mxGeometry y="90" width="400" height="70" as="geometry">
            <mxRectangle y="80" width="400" height="30" as="alternateBounds" />
          </mxGeometry>
        </mxCell>
        <mxCell id="Gj8yI_mgtx7UsbcGv7XO-98" value="&lt;span style=&quot;font-size: 14px;&quot;&gt;与wujie隔离方案一致&lt;/span&gt;" style="text;html=1;align=center;verticalAlign=middle;resizable=0;points=[];autosize=1;strokeColor=none;fillColor=none;" vertex="1" parent="Gj8yI_mgtx7UsbcGv7XO-97">
          <mxGeometry x="20" y="10" width="150" height="30" as="geometry" />
        </mxCell>
        <mxCell id="Gj8yI_mgtx7UsbcGv7XO-101" value="&lt;font style=&quot;font-size: 15px;&quot;&gt;子应用路由同步方案与 wujie 类似&lt;span style=&quot;color: rgb(37, 41, 51); font-family: -apple-system, system-ui, &amp;quot;Segoe UI&amp;quot;, Roboto, Ubuntu, Cantarell, &amp;quot;Noto Sans&amp;quot;, sans-serif, BlinkMacSystemFont, &amp;quot;Helvetica Neue&amp;quot;, &amp;quot;PingFang SC&amp;quot;, &amp;quot;Hiragino Sans GB&amp;quot;, &amp;quot;Microsoft YaHei&amp;quot;, Arial; background-color: rgb(255, 255, 255);&quot;&gt;，通过劫持路由跳转方法，&lt;br&gt;同步记录到 url 的 query 中，刷新时读取并恢复&lt;/span&gt;&lt;/font&gt;" style="text;html=1;align=left;verticalAlign=middle;resizable=0;points=[];autosize=1;strokeColor=none;fillColor=none;" vertex="1" parent="BgOZ6YaqCLX1gB_HSEzB-8">
          <mxGeometry x="10" y="320" width="430" height="50" as="geometry" />
        </mxCell>
      </root>
    </mxGraphModel>
  </diagram>
</mxfile>
